<?xml version="1.0" encoding="utf-8"?>
<!-- Generator: Adobe Illustrator 25.2.3, SVG Export Plug-In . SVG Version: 6.00 Build 0)  -->
<svg version="1.1" id="Capa_1" xmlns="http://www.w3.org/2000/svg" xmlns:xlink="http://www.w3.org/1999/xlink" x="0px" y="0px"
	 viewBox="0 0 1920 1080" style="enable-background:new 0 0 1920 1080;" xml:space="preserve">
<style type="text/css">
	.st0{fill:#77C19E;}
	.st1{fill:#77C09E;}
	.st2{fill:#0D2C29;}
	.st3{fill:#0D2927;}
	.st4{fill:#0E2B29;}
</style>
<g>
	<path class="st0" d="M285.77,771.83c-42.71-0.45-69.29-17.09-88.79-44.35c-32.09-44.86-57.61-93.85-85.72-141.21
		c-22.66-38.19-44.94-76.6-68.19-114.44c-10.44-17-14.95-36.7-16.74-56.54c-1.26-14.02,7.79-23.9,17.19-32.67
		c30-28,83.2-32.33,117.44-9.82c11.05,7.26,19.77,16.71,26.64,28.09c35.66,59.09,68.58,119.75,102.78,179.67
		c7.95,13.93,17.32,26.85,26.68,39.78c7,9.66,15.83,11.41,26.54,6.03c32.53-17.13,65.12-65.34,85.05-96.31
		c1.16-1.85,2.19-5.16,4.97-4.04c3.34,1.35,1.78,4.44,0.91,6.94C410.82,597.27,368.76,773.56,285.77,771.83z"/>
	<path class="st1" d="M350.42,527.14c-16.09,0.26-33.18-0.55-46.56-8.62c-9.14-5.8-9.89-8.56-5.15-18.07
		c27.5-55.08,56.98-109.13,85.84-163.5c9.26-17.44,23.53-25.36,42.75-26.98c21.9-1.84,43.8-2.32,65.73-1.83
		c12.31,0.27,20.71,13.97,16,26.96c-6.04,16.67-12.95,33.06-20.1,49.29c-13.83,31.41-27.71,62.81-41.63,94.18
		c-14.01,31.57-38.63,43.84-70.42,46.78C367.77,526.19,358.69,527.96,350.42,527.14z"/>
	<path class="st2" d="M1201.45,535.77c1.12,0.03,2.25,0.06,3.37,0.1c5.73-7.92,11.31-16.02,19-22.21
		c15.96-12.84,34.32-18.18,54.68-16.68c6.93,0.51,10.55,3.67,10.19,11.42c-0.53,11.55-0.09,23.13-0.15,34.71
		c-0.06,10.36-2.04,11.6-12.22,9.92c-41.56-8.23-73.51,24.55-73.09,65.06c-0.49,35.89-0.11,71.79-0.15,107.69
		c-0.01,11.12-0.28,11.34-11.58,11.38c-10.68,0.04-21.37-0.3-32.04,0.11c-7.3,0.28-9.95-2.37-9.87-9.76
		c0.38-71.2-0.04-142.41,0.12-213.61c0.01-11.34,0.34-11.65,11.3-11.71c8.6-0.05,17.21-0.05,25.81,0
		c10.24,0.07,9.87,0.42,11.14,10.27C1198.97,520.23,1198.15,528.33,1201.45,535.77z"/>
	<path class="st3" d="M1347.56,465.4c-20.15-0.2-32.68-12.83-32.37-32.61c1.03-40.37,66.79-38.77,65.96,1.86
		C1380.93,453,1367.17,465.59,1347.56,465.4z"/>
	<path class="st2" d="M607.27,414.96c17.86,0,34.73,0.05,51.59-0.04c4.24-0.02,5.42,2.78,6.51,6.01
		c8.91,26.56,17.71,53.16,26.83,79.65c9,26.15,18.56,52.12,27.48,78.3c9.4,26.42,16.59,53.67,26.73,79.81
		c1.13,2.47,0.64,6.82,4.75,6.48c3.63-0.3,5.09-3.92,6.14-6.96c26.4-79.43,53.2-158.73,79.94-238.05c1.39-4.17,3.56-5.36,7.72-5.3
		c14.54,0.21,29.08,0.28,43.61-0.02c5.73-0.12,6.47,1.8,4.71,6.74c-21.56,59.95-41.91,120.32-62.62,180.56
		c-14.21,40.93-29.48,81.52-42.54,122.84c-2.34,7.48-5.3,11.19-14.13,10.68c-15.97-0.93-32.03-0.37-48.05-0.2
		c-5.08,0.06-7.57-1.18-9.31-6.79C680.59,623.78,643.56,519.9,607.27,414.96z"/>
	<path class="st4" d="M1374.02,619.99c0,34.99-0.3,69.99,0.21,104.97c0.13,8.82-2.64,11.18-11.03,10.6
		c-10.33-0.71-20.75-0.39-31.12-0.08c-5.43,0.16-8-1.03-7.99-7.26c0.18-72.06,0.16-144.12,0.03-216.18
		c-0.01-6.34,2.61-8.28,8.56-8.13c10.97,0.27,21.96,0.45,32.91-0.05c6.63-0.3,8.64,1.78,8.58,8.49
		C1373.86,548.23,1374.02,584.11,1374.02,619.99z"/>
	<path class="st2" d="M951.2,632.14c49.24,0.06,98.48-0.24,147.72,0.1c6.11,0.07,8.17-1.69,8.2-8
		c1.02-52.61-22.72-113.47-80.66-123.26c-65.92-13.54-123.94,21.96-138.29,88.12c-14.6,59.91,14.04,135.65,79.75,148.36
		c49.24,11.95,112.02-4.14,130.22-56.29c1.58-4.35,1.26-6.49-4.22-6.38c-13.64,0.26-27.29,0.24-40.93,0
		c-4.19-0.07-6.22,1.62-8.25,5.1c-9.16,15.72-24.27,23.65-41.25,22.94c-36.12-1.51-57.38-20.27-63.72-57.68
		C938.14,635.58,941.3,632.16,951.2,632.14z M998.51,537.75c30.78,0.31,52.38,18.13,55.18,48.33c2.88,11.49,4.27,16.91-9.97,17.21
		c-27.65,1.44-55.29-4.74-82.89,0.24c-5.4,0.97-10.53-1.06-15.79-1.72c-4.44-0.56-3.58-3.98-3.68-6.79
		C940.45,566.65,964.69,535.62,998.51,537.75z"/>
	<path class="st2" d="M1893.91,644.61c-1.49-23.77,2.32-53.15-1.72-82.39c-6.9-56.72-74.4-71.08-121.67-61.64
		c-35.27,6.32-60.17,25.4-69.69,61.56c-1.27,4.84-1.41,7.01,4.47,6.97c10.35-0.07,20.72,0.85,31.04,0.47
		c5.79-0.21,12.71,0.96,14.65-8.31c0.84-4.03,5.35-7.72,8.94-10.67c18.48-15.22,39.34-16.25,60.77-8.19
		c13.51,5.08,20.85,16.19,23.16,30.28c2.13,12.99-3.87,22.7-15.32,25.09c-5.75,1.2-11.65,1.95-17.52,2.23
		c-25.08,1.18-50.02,2.88-74.15,10.76c-27.87,9.11-51.69,33.61-49.67,66.06c1.48,23.73,18.78,49.5,39.08,56.56
		c36.49,12.36,82.74,12.48,108.44-20.34c1.45-1.75,2.12-4.76,5.24-3.37c2.22,0.98,3.68,2.92,4,5.51c0.59,4.68,1.73,9.35,1.71,14.02
		c-0.03,5.43,2.62,6.33,7.2,6.25c10.68-0.2,21.38-0.42,32.04,0.07c6.84,0.32,9.29-1.58,9.17-8.87
		C1893.65,701.15,1893.91,675.63,1893.91,644.61z M1838.3,662.64c-2.46,21.77-22.64,37.77-47.08,38.82
		c-7.64,0.33-15.3,0.61-22.88-1.66c-13.56-4.07-22.64-13.03-23.93-24.39c-1.72-15.11,4.72-27.79,17.72-34.79
		c24.14-12.34,50.91-10.6,76.46-19.23C1838.58,635.53,1839.81,649.24,1838.3,662.64z"/>
</g>
<path class="st2" d="M1643.56,616.03c-0.05-15.98-0.05-32.2,0.81-48.3c1.14-47.82-0.18-95.8,0.21-143.67
	c-0.01-3.97,1.06-8.81-5.6-8.82c-13.3-0.02-26.59-0.15-39.89-0.27c-3.19-0.03-5.87,0.25-6.1,4.49l-0.64,55.54
	c-2.03,9.35-0.95,18.8-0.56,28.25c0.25,6.04,1.92,12.06,0.51,18.15c-1.38,5.92-4.1,6.66-8.19,2.14
	c-25.1-22.02-54.26-27.7-86.39-21.48c-32.53,6.3-52.43,27.71-66.6,55.83c-11.49,22.8-13.84,47.27-12.59,72.34
	c2.04,41.14,15.19,76.55,51.62,99.93c30.91,13.8,66.07,16.27,95.25-3.21c6.42-4.18,12.38-8.94,16.95-15.31
	c1.64-2.28,4.12-4.8,7.46-3.12c2.76,1.38,2.71,3.83,1.98,6.85c-1.32,5.46,2.42,10.78,0.8,16.6c-0.88,3.15,2.58,3.36,4.92,3.37
	c13.93,0.05,27.86-0.03,41.8,0.05c3.73,0.02,6.32-1.69,5.07-5.22c-3.39-9.51,0.59-18.72,0.4-28.09
	C1644.23,673.39,1643.64,644.68,1643.56,616.03z M1530.78,699.77c-35.4,0-64.1-35.48-64.1-79.24
	c2.94-100.37,120.66-110.09,119.3-0.89C1585.98,663.41,1566.18,699.77,1530.78,699.77z"/>
</svg>
